<svg width="500" height="500" viewBox="0 0 500 500" fill="none" xmlns="http://www.w3.org/2000/svg">
<path d="M436 283.5C441.5 272.5 445 260.5 445 247.5C445 214.5 424 186 395 175C395 117 348 70 290 70C241 70 200 103.5 188.5 149C181 146.5 173.5 145 165 145C126.5 145 95 174 90.5 211.5C64.5 217 45 240 45 267.5C45 299.5 70.5 325 102.5 325C103.5 325 104.5 325 105 325C105 326 105 326.5 105 327.5C105 384 151 430 207.5 430C239.5 430 268.5 415 287 392C298 403 313 410 330 410C353.5 410 373.5 396.5 383.5 377.5C389 379 394.5 380 400 380C430.5 380 455 355.5 455 325C455 308.5 447.5 293.5 436 283.5Z" fill="#C7EDE6"/>
<path d="M399.5 302.5C399.5 302.5 417.5 302.5 430 302.5C442.5 302.5 452.5 292.5 452.5 280C452.5 268.5 443.5 259 432 257.5C432 256.5 432.5 255.5 432.5 255C432.5 242.5 422.5 232.5 410 232.5C403 232.5 396.5 236 392.5 241C392 228 381 217.5 367.5 217.5C353.5 217.5 342.5 228.5 342.5 242.5C342.5 244.5 343 247 343.5 249C340 245 335.5 242.5 330 242.5C321 242.5 314 249 312.5 258C311.5 258 310.5 257.5 310 257.5C297.5 257.5 287.5 267.5 287.5 280C287.5 292.5 297.5 302.5 310 302.5C322.5 302.5 357.5 302.5 357.5 302.5H384.5V305H399.5V302.5Z" fill="#FDFCEF"/>
<path d="M367.5 215C352.5 215 340 227.5 340 242.5C337 240.5 333.5 240 330 240C321 240 313 246.5 310.5 255H310C296 255 285 266 285 280C285 294 296 305 310 305H384.5C386 305 387 304 387 302.5C387 301 386 300 384.5 300H310C299 300 290 291 290 280C290 269 299 260 310 260C310.5 260 311 260 311.5 260H312C312 260 312 260 312.5 260C313.5 260 315 259 315 258C316 250.5 322.5 245 330 245C334.5 245 338.5 247 341.5 250.5C342 251 342.5 251.5 343.5 251.5C344 251.5 344.5 251.5 344.5 251C345.5 250.5 346 249.5 346 248C345.5 246 345 244 345 242C345 229.5 355 219.5 367.5 219.5C379.5 219.5 389 229 390 241C390 242 391 243 391.5 243.5C392 243.5 392 243.5 392.5 243.5C393.5 243.5 394 243 394.5 242.5C398.5 237.5 404 235 410 235C421 235 430 244 430 255C430 255.5 430 256 430 256.5V257C430 257.5 430 258.5 430.5 259C431 259.5 431.5 260 432 260C442.5 261 450 269.5 450 280C450 291 441 300 430 300H399.5C398 300 397 301 397 302.5C397 304 398 305 399.5 305H430C444 305 455 294 455 280C455 268 446.5 258 435 255.5V255C435 241 424 230 410 230C404 230 398.5 232 394 236C391 224 380.5 215 367.5 215Z" fill="#472B29"/>
<path d="M360 250C353 250 347 255 345.5 261.5C343.5 260.5 341.5 260 339.5 260C333.5 260 328.5 264.5 327.5 270.5C326.5 270.5 325.5 270 324.5 270C317 270 310.5 276 310 283.5C310 284 310.5 285 311 285C311.5 285 312 284.5 312 284C312.5 277.5 318 272.5 324 272.5C325 272.5 326.5 272.5 327.5 273C327.5 273 327.5 273 328 273C328.5 273 328.5 273 329 272.5C329.5 272.5 329.5 272 329.5 271.5C329.5 266.5 333.5 262 339 262C341 262 343.5 263 345 264.5C345 264.5 345.5 265 346 265H346.5C347 265 347 264.5 347.5 264C348 257.5 353.5 252.5 360 252.5C361 252.5 362 252.5 363.5 253C363.5 253 363.5 253 364 253C364.5 253 365 252.5 365 252C365 251.5 365 250.5 364 250.5C362.5 250 361.5 250 360 250ZM429.5 257.5C423 257.5 417 262 415 268.5C415 269 415 270 416 270C416 270 416 270 416.5 270C417 270 417.5 269.5 417.5 269C419 263.5 424 260 429.5 260C430 260 430.5 260 431 260C431.5 260 432 259.5 432 259C432 258.5 431.5 257.5 431 257.5C431 257.5 430 257.5 429.5 257.5Z" fill="#472B29"/>
<path d="M77 255H27.5C26 255 25 254 25 252.5C25 251 26 250 27.5 250H77C78.5 250 79.5 251 79.5 252.5C79.5 254 78.5 255 77 255ZM92.5 255H87.5C86 255 85 254 85 252.5C85 251 86 250 87.5 250H92.5C94 250 95 251 95 252.5C95 254 94 255 92.5 255ZM117.5 265H72.5C71 265 70 264 70 262.5C70 261 71 260 72.5 260H117.5C119 260 120 261 120 262.5C120 264 119 265 117.5 265ZM62.5 265H57.5C56 265 55 264 55 262.5C55 261 56 260 57.5 260H62.5C64 260 65 261 65 262.5C65 264 64 265 62.5 265ZM47.5 265H37.5C36 265 35 264 35 262.5C35 261 36 260 37.5 260H47.5C49 260 50 261 50 262.5C50 264 49 265 47.5 265ZM77.5 275H67.5C66 275 65 274 65 272.5C65 271 66 270 67.5 270H77.5C79 270 80 271 80 272.5C80 274 79 275 77.5 275ZM92.5 230C91.5 230 88.5 230 87.5 230C86 230 85 231 85 232.5C85 234 86 235 87.5 235C88.5 235 91.5 235 92.5 235C94 235 95 234 95 232.5C95 231 94 230 92.5 230ZM92.5 240C91.5 240 68.5 240 67.5 240C66 240 65 241 65 242.5C65 244 66 245 67.5 245C68.5 245 91.5 245 92.5 245C94 245 95 244 95 242.5C95 241 94 240 92.5 240ZM117.5 250C116.5 250 103.5 250 102.5 250C101 250 100 251 100 252.5C100 254 101 255 102.5 255C103.5 255 116.5 255 117.5 255C119 255 120 254 120 252.5C120 251 119 250 117.5 250Z" fill="white"/>
<path d="M362.5 120H312.5C311 120 310 119 310 117.5C310 116 311 115 312.5 115H362.5C364 115 365 116 365 117.5C365 119 364 120 362.5 120ZM382.5 120H372.5C371 120 370 119 370 117.5C370 116 371 115 372.5 115H382.5C384 115 385 116 385 117.5C385 119 384 120 382.5 120ZM407.5 130H357.5C356 130 355 129 355 127.5C355 126 356 125 357.5 125H407.5C409 125 410 126 410 127.5C410 129 409 130 407.5 130ZM347.5 130H342.5C341 130 340 129 340 127.5C340 126 341 125 342.5 125H347.5C349 125 350 126 350 127.5C350 129 349 130 347.5 130ZM332 130H322.5C321 130 320 129 320 127.5C320 126 321 125 322.5 125H332C333.5 125 334.5 126 334.5 127.5C334.5 129 333.5 130 332 130ZM377.5 110H352.5C351 110 350 109 350 107.5C350 106 351 105 352.5 105H377.5C379 105 380 106 380 107.5C380 109 379 110 377.5 110ZM362.5 140H352.5C351 140 350 139 350 137.5C350 136 351 135 352.5 135H362.5C364 135 365 136 365 137.5C365 139 364 140 362.5 140Z" fill="white"/>
<path d="M185 356.5C165 356.5 148.5 340 148.5 320V180C148.5 160 165 143.5 185 143.5H325C345 143.5 361.5 160 361.5 180V320C361.5 340 345 356.5 325 356.5H185Z" fill="#157EFB"/>
<path d="M325 147C343 147 358 162 358 180V320C358 338 343 353 325 353H185C167 353 152 338 152 320V180C152 162 167 147 185 147H325ZM325 140H185C163 140 145 158 145 180V320C145 342 163 360 185 360H325C347 360 365 342 365 320V180C365 158 347 140 325 140Z" fill="#472B29"/>
<path d="M342 237.5C340.5 237.5 339.5 236.5 339.5 235V216.5C339.5 215 340.5 214 342 214C343.5 214 344.5 215 344.5 216.5V235C344.5 236.5 343.5 237.5 342 237.5Z" fill="#472B29"/>
<path d="M342.5 205.5C341 205.5 340 204.5 340 203V193.5C340 192 341 191 342.5 191C344 191 345 192 345 193.5V203C345 204 344 205.5 342.5 205.5Z" fill="#472B29"/>
<path d="M321.5 339.5H189C176 339.5 165.5 329 165.5 316V183.5C165.5 170.5 176 160 189 160H309C310.5 160 311.5 161 311.5 162.5C311.5 164 310 165 309 165H189C178.5 165 170.5 173.5 170.5 183.5V315.5C170.5 326 179 334 189 334H321C331.5 334 339.5 325.5 339.5 315.5V248C339.5 246.5 340.5 245.5 342 245.5C343.5 245.5 344.5 246.5 344.5 248V316C345 329 334.5 339.5 321.5 339.5Z" fill="#472B29"/>
<path d="M266 291.5C266 296 270.5 298.5 280.5 298.5V307.5H229.5V298.5C239 298.5 243.5 296 243.5 291.5V244.5C243.5 240 239 237.5 229.5 237.5V228.5H266C266 229 266 291.5 266 291.5ZM268 203C268 206.5 266.5 209.5 264 212.5C261.5 215 258 216.5 254 216.5C252 216.5 250 216 248.5 215.5C247 215 245.5 214 244 212.5C242.5 211.5 241.5 210 241 208.5C240 207 240 205 240 203.5C240 200 241.5 196.5 244 194C247 191.5 250 190 254 190C258 190 261 191.5 264 194C267 196 268 199 268 203Z" fill="#FDFCEE"/>
<path d="M283 310H227V296H229.5C235 296 241 295 241 291.5V244.5C241 241.5 237 240 229.5 240H227V226H268.5V291.5C268.5 292.5 268.5 293 269 293.5C270 294.5 272.5 296 280 296H282.5V310H283ZM232 305H278V301C272 300.5 268 299.5 265.5 297C264 295.5 263.5 293.5 263.5 291.5V231.5H232V235C241.5 235.5 246 238.5 246 244.5V291.5C246 297.5 241 300.5 232 301V305ZM254 218.5C251.5 218.5 249.5 218 247.5 217C245.5 216 244 215 242.5 213.5C241 212 240 210.5 239 208.5C238 206.5 237.5 204.5 237.5 202C237.5 197.5 239 194 242.5 191C246 188 249.5 186.5 254 186.5C258.5 186.5 262.5 188 265.5 191C269 194 270.5 198 270.5 202C270.5 206.5 269 210 265.5 213C262.5 217 259 218.5 254 218.5ZM254 192C251 192 248 193 245.5 195C243 197 242 199.5 242 202.5C242 204 242.5 205.5 243 206.5C243.5 208 244.5 209 245.5 210C246.5 211 248 212 249 212.5C250.5 213 252 213.5 253.5 213.5C257 213.5 259.5 212.5 261.5 210.5C263.5 208.5 265 206 265 203C265 200 264 197.5 261.5 195.5C260 193 257.5 192 254 192Z" fill="#472B29"/>
<path d="M182.5 367.5C182.5 367.5 190.5 367.5 200 367.5C209.5 367.5 217.5 359.5 217.5 350C217.5 341 211 334 202 332.5C202 331.5 202.5 330.5 202.5 330C202.5 320.5 194.5 312.5 185 312.5C180 312.5 175 315 172 318.5C170 309.5 162 302.5 152.5 302.5C141.5 302.5 132.5 311.5 132.5 322.5C132.5 323.5 132.5 324.5 133 325.5C131 324 128 322.5 125 322.5C119 322.5 114 327 112.5 333C111.5 333 110.5 332.5 110 332.5C100.5 332.5 92.5 340.5 92.5 350C92.5 359.5 100.5 367.5 110 367.5C119.5 367.5 147.5 367.5 147.5 367.5V370H182.5V367.5Z" fill="#FDFCEF"/>
<path d="M191.5 345C191 345 190 344.5 190 343.5C190 337.5 195 332.5 201 332.5C201 332.5 204.5 332.5 207 333C207.5 333 208 334 208 334.5C208 335 207 335.5 206.5 335.5C204.5 335 201 335 201 335C196.5 335 192.5 339 192.5 343.5C192.5 344.5 192 345 191.5 345ZM157.5 365C156.837 365 156.201 365.263 155.732 365.732C155.263 366.201 155 366.837 155 367.5C155 368.163 155.263 368.799 155.732 369.268C156.201 369.737 156.837 370 157.5 370C158.163 370 158.799 369.737 159.268 369.268C159.737 368.799 160 368.163 160 367.5C160 366.837 159.737 366.201 159.268 365.732C158.799 365.263 158.163 365 157.5 365Z" fill="#472B29"/>
<path d="M200 370H182.5C181 370 180 369 180 367.5C180 366 181 365 182.5 365H200C208.5 365 215 358.5 215 350C215 342.5 209.5 336 202 335C201.5 335 200.5 334.5 200.5 334C200.5 333.5 200 333 200 332C200 331 200 330.5 200 329.5C200 321 193.5 314.5 185 314.5C181 314.5 177 316.5 174 319.5C173.5 320 172.5 320.5 171.5 320C170.5 320 170 319 169.5 318C168 310 160.5 304 152.5 304C143 304 135 312 135 321.5C135 322 135 323 135 323.5C135 324.5 134.5 325.5 134 326C133.5 326.5 132 326.5 131 326C129.5 326 127 325 125 325C120 325 116 328.5 115 333C115 334.5 113.5 335 112 335C111 335 110.5 335 109.5 335C101 335 94.5 341.5 94.5 350C94.5 358.5 101 365 109.5 365H147C148.5 365 149.5 366 149.5 367.5C149.5 369 149 370 147.5 370H110C99 370 90 361 90 350C90 339 99 330 110 330C110.5 330 110.5 330 111 330C113 324 118.5 320 125 320C126.5 320 128.5 320.5 130 321C131 309.5 140.5 300 152.5 300C161.5 300 170 305.5 173.5 314C177 311.5 181 310 185 310C196 310 205 319 205 330V330.5C213.5 332.5 220 340.5 220 350C220 361 211 370 200 370Z" fill="#472B29"/>
<path d="M172.5 365C171.5 365 168.5 365 167.5 365C166 365 165 366 165 367.5C165 369 166 370 167.5 370C168.5 370 171.5 370 172.5 370C174 370 175 369 175 367.5C175 366 174 365 172.5 365Z" fill="#472B29"/>
</svg>
