<svg width="500" height="500" viewBox="0 0 500 500" fill="none" xmlns="http://www.w3.org/2000/svg">
<path d="M436 283.5C441.5 272.5 445 260.5 445 247.5C445 214.5 424 186 395 175C395 117 348 70 290 70C241 70 200 103.5 188.5 149C181 146.5 173.5 145 165 145C126.5 145 95 174 90.5 211.5C64.5 217 45 240 45 267.5C45 299.5 70.5 325 102.5 325C103.5 325 104.5 325 105 325C105 326 105 326.5 105 327.5C105 384 151 430 207.5 430C239.5 430 268.5 415 287 392C298 403 313 410 330 410C353.5 410 373.5 396.5 383.5 377.5C389 379 394.5 380 400 380C430.5 380 455 355.5 455 325C455 308.5 447.5 293.5 436 283.5Z" fill="#C7EDE6"/>
<path d="M68 267H18.5C17 267 16 266 16 264.5C16 263 17 262 18.5 262H68C69.5 262 70.5 263 70.5 264.5C70.5 266 69.5 267 68 267ZM83.5 267H78.5C77 267 76 266 76 264.5C76 263 77 262 78.5 262H83.5C85 262 86 263 86 264.5C86 266 85 267 83.5 267ZM108.5 277H63.5C62 277 61 276 61 274.5C61 273 62 272 63.5 272H108.5C110 272 111 273 111 274.5C111 276 110 277 108.5 277ZM53.5 277H48.5C47 277 46 276 46 274.5C46 273 47 272 48.5 272H53.5C55 272 56 273 56 274.5C56 276 55 277 53.5 277ZM38.5 277H28.5C27 277 26 276 26 274.5C26 273 27 272 28.5 272H38.5C40 272 41 273 41 274.5C41 276 40 277 38.5 277ZM68.5 287H58.5C57 287 56 286 56 284.5C56 283 57 282 58.5 282H68.5C70 282 71 283 71 284.5C71 286 70 287 68.5 287ZM83.5 242C82.5 242 79.5 242 78.5 242C77 242 76 243 76 244.5C76 246 77 247 78.5 247C79.5 247 82.5 247 83.5 247C85 247 86 246 86 244.5C86 243 85 242 83.5 242ZM83.5 252C82.5 252 59.5 252 58.5 252C57 252 56 253 56 254.5C56 256 57 257 58.5 257C59.5 257 82.5 257 83.5 257C85 257 86 256 86 254.5C86 253 85 252 83.5 252ZM108.5 262C107.5 262 94.5 262 93.5 262C92 262 91 263 91 264.5C91 266 92 267 93.5 267C94.5 267 107.5 267 108.5 267C110 267 111 266 111 264.5C111 263 110 262 108.5 262Z" fill="white"/>
<path d="M363.5 112H313.5C312 112 311 111 311 109.5C311 108 312 107 313.5 107H363.5C365 107 366 108 366 109.5C366 111 365 112 363.5 112ZM383.5 112H373.5C372 112 371 111 371 109.5C371 108 372 107 373.5 107H383.5C385 107 386 108 386 109.5C386 111 385 112 383.5 112ZM408.5 122H358.5C357 122 356 121 356 119.5C356 118 357 117 358.5 117H408.5C410 117 411 118 411 119.5C411 121 410 122 408.5 122ZM348.5 122H343.5C342 122 341 121 341 119.5C341 118 342 117 343.5 117H348.5C350 117 351 118 351 119.5C351 121 350 122 348.5 122ZM333 122H323.5C322 122 321 121 321 119.5C321 118 322 117 323.5 117H333C334.5 117 335.5 118 335.5 119.5C335.5 121 334.5 122 333 122ZM378.5 102H353.5C352 102 351 101 351 99.5C351 98 352 97 353.5 97H378.5C380 97 381 98 381 99.5C381 101 380 102 378.5 102ZM363.5 132H353.5C352 132 351 131 351 129.5C351 128 352 127 353.5 127H363.5C365 127 366 128 366 129.5C366 131 365 132 363.5 132Z" fill="white"/>
<path d="M402 225C402 225 420 225 432.5 225C445 225 455 215 455 202.5C455 191 446 181.5 434.5 180C434.5 179 435 178 435 177.5C435 165 425 155 412.5 155C405.5 155 399 158.5 395 163.5C394.5 150.5 383.5 140 370 140C356 140 345 151 345 165C345 167 345.5 169.5 346 171.5C342.5 167.5 338 165 332.5 165C323.5 165 316.5 171.5 315 180.5C314 180.5 313 180 312.5 180C300 180 290 190 290 202.5C290 215 300 225 312.5 225C325 225 360 225 360 225H387V227.5H402V225Z" fill="#FDFCEF"/>
<path d="M370.5 137C355.5 137 343 149.5 343 164.5C340 162.5 336.5 162 333 162C324 162 316 168.5 313.5 177H313C299 177 288 188 288 202C288 216 299 227 313 227H387.5C389 227 390 226 390 224.5C390 223 389 222 387.5 222H313C302 222 293 213 293 202C293 191 302 182 313 182C313.5 182 314 182 314.5 182H315C315 182 315 182 315.5 182C316.5 182 318 181 318 180C319 172.5 325.5 167 333 167C337.5 167 341.5 169 344.5 172.5C345 173 345.5 173.5 346.5 173.5C347 173.5 347.5 173.5 347.5 173C348.5 172.5 349 171.5 349 170C348.5 168 348 166 348 164C348 151.5 358 141.5 370.5 141.5C382.5 141.5 392 151 393 163C393 164 394 165 394.5 165.5C395 165.5 395 165.5 395.5 165.5C396.5 165.5 397 165 397.5 164.5C401.5 159.5 407 157 413 157C424 157 433 166 433 177C433 177.5 433 178 433 178.5V179C433 179.5 433 180.5 433.5 181C434 181.5 434.5 182 435 182C445.5 183 453 191.5 453 202C453 213 444 222 433 222H402.5C401 222 400 223 400 224.5C400 226 401 227 402.5 227H433C447 227 458 216 458 202C458 190 449.5 180 438 177.5V177C438 163 427 152 413 152C407 152 401.5 154 397 158C394 146 383.5 137 370.5 137Z" fill="#472B29"/>
<rect x="143" y="141" width="213" height="213" rx="21" fill="#157EFB"/>
<path d="M330.327 337H276.804C274.675 337 272.949 335.23 272.949 333.046C272.949 330.863 274.675 329.093 276.804 329.093H330.327C330.858 329.093 331.291 328.65 331.291 328.104V291.46C331.291 289.276 333.016 287.506 335.145 287.506C337.274 287.506 339 289.276 339 291.46V328.104C339 333.01 335.109 337 330.327 337Z" fill="#472B29"/>
<path d="M163.855 207.494C161.726 207.494 160 205.724 160 203.54V166.896C160 161.99 163.891 158 168.673 158H222.196C224.325 158 226.051 159.77 226.051 161.954C226.051 164.137 224.325 165.907 222.196 165.907H168.673C168.142 165.907 167.71 166.35 167.71 166.896V203.54C167.71 205.724 165.984 207.494 163.855 207.494Z" fill="#472B29"/>
<path d="M222.196 337H168.673C163.891 337 160 333.01 160 328.104V291.46C160 289.276 161.726 287.506 163.855 287.506C165.984 287.506 167.71 289.276 167.71 291.46V328.104C167.71 328.65 168.142 329.093 168.673 329.093H222.196C224.325 329.093 226.051 330.863 226.051 333.046C226.051 335.23 224.325 337 222.196 337Z" fill="#472B29"/>
<path d="M335.145 207.494C333.016 207.494 331.29 205.724 331.29 203.54V166.896C331.29 166.35 330.858 165.907 330.327 165.907H276.804C274.675 165.907 272.949 164.137 272.949 161.954C272.949 159.77 274.675 158 276.804 158H330.327C335.109 158 339 161.99 339 166.896V203.54C339 205.724 337.274 207.494 335.145 207.494Z" fill="#472B29"/>
<path d="M309.484 300.252H190.517C183.505 300.252 177.821 294.716 177.821 287.885V218.268C177.821 211.437 183.505 205.901 190.517 205.901H309.483C316.495 205.901 322.179 211.437 322.179 218.268V287.887C322.18 294.716 316.495 300.252 309.484 300.252Z" fill="#FDFCEE"/>
<path d="M278.639 189.697C277.101 187.244 274.364 185.748 271.415 185.748H250.001H228.587C225.637 185.748 222.899 187.244 221.363 189.697L211.207 205.901H250.001H288.794L278.639 189.697Z" fill="#FDFCEE"/>
<path d="M250.001 293.077C272.397 293.077 290.553 275.392 290.553 253.577C290.553 231.762 272.397 214.077 250.001 214.077C227.604 214.077 209.448 231.762 209.448 253.577C209.448 275.392 227.604 293.077 250.001 293.077Z" fill="#FDFCEE"/>
<path d="M250.001 280.984C234.485 280.984 221.862 268.689 221.862 253.577C221.862 238.464 234.485 226.169 250.001 226.169C265.517 226.169 278.139 238.464 278.139 253.577C278.139 268.69 265.517 280.984 250.001 280.984Z" fill="#472B29"/>
<path d="M249.793 270.39C240.51 270.39 232.956 263.033 232.956 253.989C232.956 244.945 240.508 237.587 249.793 237.587C259.077 237.587 266.631 244.944 266.631 253.989C266.631 263.033 259.077 270.39 249.793 270.39V270.39Z" fill="#FDFCEE"/>
<path d="M309.484 303H190.517C181.962 303 175 296.219 175 287.885V218.268C175 209.934 181.962 203.153 190.517 203.153H309.483C318.038 203.153 325 209.934 325 218.268V287.885C325.001 296.219 318.04 303 309.484 303ZM190.517 208.649C185.072 208.649 180.643 212.965 180.643 218.268V287.885C180.643 293.188 185.072 297.504 190.517 297.504H309.483C314.926 297.504 319.357 293.188 319.357 287.885V218.268C319.357 212.965 314.926 208.649 309.483 208.649H190.517Z" fill="#472B29"/>
<path d="M288.794 208.648H211.208C210.188 208.648 209.247 208.111 208.747 207.245C208.248 206.379 208.268 205.317 208.799 204.468L218.955 188.265C220.989 185.018 224.681 183 228.587 183H271.413C275.319 183 279.01 185.018 281.045 188.265L291.201 204.468C291.732 205.316 291.752 206.378 291.253 207.245C290.753 208.112 289.815 208.648 288.794 208.648V208.648ZM216.235 203.152H283.765L276.229 191.129C275.212 189.505 273.367 188.496 271.415 188.496H228.587C226.633 188.496 224.788 189.505 223.771 191.129L216.235 203.152Z" fill="#472B29"/>
<path d="M301.398 228.692C297.276 228.692 293.922 225.426 293.922 221.41C293.922 217.393 297.275 214.127 301.398 214.127C305.522 214.127 308.875 217.393 308.875 221.41C308.875 225.426 305.52 228.692 301.398 228.692Z" fill="#472B29"/>
<path d="M250.001 295.823C226.084 295.823 206.627 276.871 206.627 253.577C206.627 230.281 226.084 211.329 250.001 211.329C273.917 211.329 293.374 230.281 293.374 253.577C293.374 276.871 273.917 295.823 250.001 295.823ZM250.001 216.825C229.196 216.825 212.27 233.312 212.27 253.577C212.27 273.841 229.196 290.327 250.001 290.327C270.805 290.327 287.732 273.841 287.732 253.577C287.732 233.312 270.805 216.825 250.001 216.825Z" fill="#472B29"/>
<path d="M330 137H170C153.431 137 140 150.431 140 167V327C140 343.569 153.431 357 170 357H330C346.569 357 360 343.569 360 327V167C360 150.431 346.569 137 330 137Z" stroke="#472B29" stroke-width="8"/>
<path d="M181 382.519C181 382.519 189 382.519 198.5 382.519C208 382.519 216 374.578 216 365.148C216 356.215 209.5 349.267 200.5 347.778C200.5 346.785 201 345.793 201 345.296C201 335.867 193 327.926 183.5 327.926C178.5 327.926 173.5 330.407 170.5 333.881C168.5 324.948 160.5 318 151 318C140 318 131 326.933 131 337.852C131 338.844 131 339.837 131.5 340.83C129.5 339.341 126.5 337.852 123.5 337.852C117.5 337.852 112.5 342.319 111 348.274C110 348.274 109 347.778 108.5 347.778C99 347.778 91 355.719 91 365.148C91 374.578 99 382.519 108.5 382.519C118 382.519 146 382.519 146 382.519V385H181V382.519Z" fill="#FDFCEF"/>
<path d="M198 385H180.5C179 385 178 384 178 382.5C178 381 179 380 180.5 380H198C206.5 380 213 373.5 213 365C213 357.5 207.5 351 200 350C199.5 350 198.5 349.5 198.5 349C198.5 348.5 198 348 198 347C198 346 198 345.5 198 344.5C198 336 191.5 329.5 183 329.5C179 329.5 175 331.5 172 334.5C171.5 335 170.5 335.5 169.5 335C168.5 335 168 334 167.5 333C166 325 158.5 319 150.5 319C141 319 133 327 133 336.5C133 337 133 338 133 338.5C133 339.5 132.5 340.5 132 341C131.5 341.5 130 341.5 129 341C127.5 341 125 340 123 340C118 340 114 343.5 113 348C113 349.5 111.5 350 110 350C109 350 108.5 350 107.5 350C99 350 92.5 356.5 92.5 365C92.5 373.5 99 380 107.5 380H145C146.5 380 147.5 381 147.5 382.5C147.5 384 147 385 145.5 385H108C97 385 88 376 88 365C88 354 97 345 108 345C108.5 345 108.5 345 109 345C111 339 116.5 335 123 335C124.5 335 126.5 335.5 128 336C129 324.5 138.5 315 150.5 315C159.5 315 168 320.5 171.5 329C175 326.5 179 325 183 325C194 325 203 334 203 345V345.5C211.5 347.5 218 355.5 218 365C218 376 209 385 198 385Z" fill="#472B29"/>
<rect x="162" y="380" width="10" height="5" rx="2.5" fill="#472B29"/>
<path d="M156 382.5C156 383.881 154.881 385 153.5 385C152.119 385 151 383.881 151 382.5C151 381.119 152.119 380 153.5 380C154.881 380 156 381.119 156 382.5Z" fill="#472B29"/>
</svg>
